<svg xmlns="http://www.w3.org/2000/svg" xmlns:xlink="http://www.w3.org/1999/xlink" viewBox="0 0 489.49 82.99" style=""><defs><style>.cls-1{fill:none;stroke-linecap:round;stroke-linejoin:round;stroke-width:3px;stroke:url(#Spectrum_);}</style><linearGradient id="Spectrum_" x1="1.5" y1="41.5" x2="487.99" y2="41.5" gradientUnits="userSpaceOnUse"><stop offset="0" stop-color="#00a8de"></stop><stop offset="0.2" stop-color="#333391"></stop><stop offset="0.4" stop-color="#e91388"></stop><stop offset="0.6" stop-color="#eb2d2e"></stop><stop offset="0.8" stop-color="#fde92b"></stop><stop offset="1" stop-color="#009e54"></stop></linearGradient></defs><title>Asset 1</title><g id="Layer_2" data-name="Layer 2"><g id="Capa_1" data-name="Capa 1"><path class="cls-1 HLaMZawG_0" d="M1.5,1.59h8V56.66H35.86v6.69H1.5Z"></path><path class="cls-1 HLaMZawG_1" d="M83.33,40.81c0,16.4-11.36,23.55-22.08,23.55-12,0-21.26-8.8-21.26-22.82C40,26.7,49.7,18,62,18,74.71,18,83.33,27.25,83.33,40.81Zm-35.19.46c0,9.71,5.59,17,13.47,17,7.7,0,13.47-7.24,13.47-17.23,0-7.51-3.76-17-13.29-17S48.14,32.84,48.14,41.27Z"></path><path class="cls-1 HLaMZawG_2" d="M93.5,32.84c0-5.22-.09-9.71-.37-13.84h7.06l.27,8.71h.37c2-6,6.87-9.71,12.28-9.71a8.73,8.73,0,0,1,2.29.27v7.61a12.09,12.09,0,0,0-2.75-.27c-5.68,0-9.71,4.31-10.81,10.35a22.66,22.66,0,0,0-.37,3.76V63.35h-8Z"></path><path class="cls-1 HLaMZawG_3" d="M127,42.64c.18,10.9,7.15,15.39,15.21,15.39a29.16,29.16,0,0,0,12.28-2.29l1.37,5.77a35.92,35.92,0,0,1-14.75,2.75c-13.65,0-21.81-9-21.81-22.36S127.22,18,140.14,18c14.48,0,18.33,12.74,18.33,20.89a30.38,30.38,0,0,1-.27,3.76Zm23.64-5.77c.09-5.13-2.11-13.1-11.18-13.1-8.15,0-11.73,7.51-12.37,13.1Z"></path><path class="cls-1 HLaMZawG_4" d="M168.46,31c0-4.58-.09-8.34-.37-12h7.06l.37,7.15h.27c2.47-4.22,6.6-8.16,13.93-8.16a13.11,13.11,0,0,1,12.55,8.89h.18a18.27,18.27,0,0,1,4.95-5.77,15.14,15.14,0,0,1,9.8-3.12c5.86,0,14.57,3.85,14.57,19.24V63.35H223.9V38.24c0-8.52-3.11-13.65-9.62-13.65-4.58,0-8.15,3.39-9.53,7.33a13.27,13.27,0,0,0-.64,4v27.4h-7.88V36.78c0-7.06-3.12-12.19-9.25-12.19-5,0-8.7,4-10,8.06a11.12,11.12,0,0,0-.64,3.94V63.35h-7.88Z"></path><path class="cls-1 HLaMZawG_5" d="M273.29,6.54c.09,2.75-1.92,4.95-5.13,4.95a4.79,4.79,0,0,1-4.86-4.95,4.91,4.91,0,0,1,5-5A4.79,4.79,0,0,1,273.29,6.54Zm-9,56.81V19h8.06V63.35Z"></path><path class="cls-1 HLaMZawG_6" d="M285.75,33.48c0-5.68-.18-10.26-.37-14.48h7.24l.37,7.61h.18c3.3-5.41,8.52-8.61,15.76-8.61,10.72,0,18.78,9.07,18.78,22.54,0,15.94-9.71,23.82-20.16,23.82-5.86,0-11-2.57-13.65-7h-.18v24.1h-8Zm8,11.82a18.13,18.13,0,0,0,.37,3.3A12.44,12.44,0,0,0,306.19,58c8.52,0,13.47-7,13.47-17.13,0-8.89-4.67-16.49-13.19-16.49a12.87,12.87,0,0,0-12.19,10,13.05,13.05,0,0,0-.55,3.3Z"></path><path class="cls-1 HLaMZawG_7" d="M336.79,55.1a21.13,21.13,0,0,0,10.63,3.21c5.86,0,8.61-2.93,8.61-6.6,0-3.85-2.29-6-8.25-8.16-8-2.84-11.73-7.24-11.73-12.55,0-7.15,5.77-13,15.3-13a22.14,22.14,0,0,1,10.9,2.75l-2,5.86A17.26,17.26,0,0,0,351.18,24c-4.77,0-7.42,2.75-7.42,6,0,3.67,2.66,5.31,8.43,7.51,7.7,2.93,11.64,6.78,11.64,13.38,0,7.79-6,13.29-16.58,13.29a25.29,25.29,0,0,1-12.46-3Z"></path><path class="cls-1 HLaMZawG_8" d="M411.29,51.25c0,4.58.09,8.61.37,12.1h-7.15l-.46-7.24h-.18a16.69,16.69,0,0,1-14.66,8.25c-7,0-15.3-3.85-15.3-19.43V19H382V43.56c0,8.43,2.57,14.11,9.9,14.11a11.66,11.66,0,0,0,10.63-7.33,11.8,11.8,0,0,0,.73-4.12V19h8.06Z"></path><path class="cls-1 HLaMZawG_9" d="M424.67,31c0-4.58-.09-8.34-.37-12h7.06l.37,7.15H432c2.47-4.22,6.6-8.16,13.93-8.16a13.11,13.11,0,0,1,12.55,8.89h.18a18.27,18.27,0,0,1,4.95-5.77,15.14,15.14,0,0,1,9.8-3.12C479.28,18,488,21.84,488,37.24V63.35h-7.88V38.24c0-8.52-3.12-13.65-9.62-13.65-4.58,0-8.16,3.39-9.53,7.33a13.29,13.29,0,0,0-.64,4v27.4h-7.88V36.78c0-7.06-3.12-12.19-9.25-12.19-5,0-8.71,4-10,8.06a11.12,11.12,0,0,0-.64,3.94V63.35h-7.88Z"></path></g></g><style>.HLaMZawG_0{stroke-dasharray:193 195;stroke-dashoffset:194;animation:HLaMZawG_draw_0 7200ms linear 0ms infinite,HLaMZawG_fade 7200ms linear 0ms infinite;}.HLaMZawG_1{stroke-dasharray:240 242;stroke-dashoffset:241;animation:HLaMZawG_draw_1 7200ms linear 0ms infinite,HLaMZawG_fade 7200ms linear 0ms infinite;}.HLaMZawG_2{stroke-dasharray:142 144;stroke-dashoffset:143;animation:HLaMZawG_draw_2 7200ms linear 0ms infinite,HLaMZawG_fade 7200ms linear 0ms infinite;}.HLaMZawG_3{stroke-dasharray:259 261;stroke-dashoffset:260;animation:HLaMZawG_draw_3 7200ms linear 0ms infinite,HLaMZawG_fade 7200ms linear 0ms infinite;}.HLaMZawG_4{stroke-dasharray:365 367;stroke-dashoffset:366;animation:HLaMZawG_draw_4 7200ms linear 0ms infinite,HLaMZawG_fade 7200ms linear 0ms infinite;}.HLaMZawG_5{stroke-dasharray:137 139;stroke-dashoffset:138;animation:HLaMZawG_draw_5 7200ms linear 0ms infinite,HLaMZawG_fade 7200ms linear 0ms infinite;}.HLaMZawG_6{stroke-dasharray:309 311;stroke-dashoffset:310;animation:HLaMZawG_draw_6 7200ms linear 0ms infinite,HLaMZawG_fade 7200ms linear 0ms infinite;}.HLaMZawG_7{stroke-dasharray:190 192;stroke-dashoffset:191;animation:HLaMZawG_draw_7 7200ms linear 0ms infinite,HLaMZawG_fade 7200ms linear 0ms infinite;}.HLaMZawG_8{stroke-dasharray:237 239;stroke-dashoffset:238;animation:HLaMZawG_draw_8 7200ms linear 0ms infinite,HLaMZawG_fade 7200ms linear 0ms infinite;}.HLaMZawG_9{stroke-dasharray:365 367;stroke-dashoffset:366;animation:HLaMZawG_draw_9 7200ms linear 0ms infinite,HLaMZawG_fade 7200ms linear 0ms infinite;}@keyframes HLaMZawG_draw{100%{stroke-dashoffset:0;}}@keyframes HLaMZawG_fade{0%{stroke-opacity:1;}94.44444444444444%{stroke-opacity:1;}100%{stroke-opacity:0;}}@keyframes HLaMZawG_draw_0{11.11111111111111%{stroke-dashoffset: 194}38.88888888888889%{ stroke-dashoffset: 0;}100%{ stroke-dashoffset: 0;}}@keyframes HLaMZawG_draw_1{12.654320987654321%{stroke-dashoffset: 241}40.4320987654321%{ stroke-dashoffset: 0;}100%{ stroke-dashoffset: 0;}}@keyframes HLaMZawG_draw_2{14.19753086419753%{stroke-dashoffset: 143}41.9753086419753%{ stroke-dashoffset: 0;}100%{ stroke-dashoffset: 0;}}@keyframes HLaMZawG_draw_3{15.740740740740744%{stroke-dashoffset: 260}43.518518518518526%{ stroke-dashoffset: 0;}100%{ stroke-dashoffset: 0;}}@keyframes HLaMZawG_draw_4{17.28395061728395%{stroke-dashoffset: 366}45.06172839506173%{ stroke-dashoffset: 0;}100%{ stroke-dashoffset: 0;}}@keyframes HLaMZawG_draw_5{18.82716049382716%{stroke-dashoffset: 138}46.60493827160494%{ stroke-dashoffset: 0;}100%{ stroke-dashoffset: 0;}}@keyframes HLaMZawG_draw_6{20.370370370370374%{stroke-dashoffset: 310}48.14814814814815%{ stroke-dashoffset: 0;}100%{ stroke-dashoffset: 0;}}@keyframes HLaMZawG_draw_7{21.91358024691358%{stroke-dashoffset: 191}49.691358024691354%{ stroke-dashoffset: 0;}100%{ stroke-dashoffset: 0;}}@keyframes HLaMZawG_draw_8{23.45679012345679%{stroke-dashoffset: 238}51.23456790123456%{ stroke-dashoffset: 0;}100%{ stroke-dashoffset: 0;}}@keyframes HLaMZawG_draw_9{25%{stroke-dashoffset: 366}52.77777777777778%{ stroke-dashoffset: 0;}100%{ stroke-dashoffset: 0;}}</style></svg>